<mxfile host="Electron" agent="Mozilla/5.0 (Windows NT 10.0; Win64; x64) AppleWebKit/537.36 (KHTML, like Gecko) draw.io/26.0.3 Chrome/130.0.6723.137 Electron/33.2.1 Safari/537.36" version="26.0.3">
  <diagram id="C5RBs43oDa-KdzZeNtuy" name="Page-1">
    <mxGraphModel dx="2049" dy="1206" grid="1" gridSize="10" guides="1" tooltips="1" connect="1" arrows="1" fold="1" page="1" pageScale="1" pageWidth="827" pageHeight="1169" math="0" shadow="0">
      <root>
        <mxCell id="WIyWlLk6GJQsqaUBKTNV-0" />
        <mxCell id="WIyWlLk6GJQsqaUBKTNV-1" parent="WIyWlLk6GJQsqaUBKTNV-0" />
        <mxCell id="XxWV6MkHS1eh3oYA28Jd-0" value="users" style="swimlane;fontStyle=2;align=center;verticalAlign=top;childLayout=stackLayout;horizontal=1;startSize=26;horizontalStack=0;resizeParent=1;resizeLast=0;collapsible=1;marginBottom=0;rounded=0;shadow=0;strokeWidth=1;" vertex="1" parent="WIyWlLk6GJQsqaUBKTNV-1">
          <mxGeometry x="290" y="670" width="160" height="110" as="geometry">
            <mxRectangle x="230" y="140" width="160" height="26" as="alternateBounds" />
          </mxGeometry>
        </mxCell>
        <mxCell id="XxWV6MkHS1eh3oYA28Jd-1" value="(PK) id: integer" style="text;html=1;align=left;verticalAlign=middle;whiteSpace=wrap;rounded=0;" vertex="1" parent="XxWV6MkHS1eh3oYA28Jd-0">
          <mxGeometry y="26" width="160" height="30" as="geometry" />
        </mxCell>
        <mxCell id="XxWV6MkHS1eh3oYA28Jd-2" value="login: varchar(30)&#xa;" style="text;align=left;verticalAlign=top;spacingLeft=4;spacingRight=4;overflow=hidden;rotatable=0;points=[[0,0.5],[1,0.5]];portConstraint=eastwest;" vertex="1" parent="XxWV6MkHS1eh3oYA28Jd-0">
          <mxGeometry y="56" width="160" height="26" as="geometry" />
        </mxCell>
        <mxCell id="XxWV6MkHS1eh3oYA28Jd-3" value="password: varchar(30)" style="text;align=left;verticalAlign=top;spacingLeft=4;spacingRight=4;overflow=hidden;rotatable=0;points=[[0,0.5],[1,0.5]];portConstraint=eastwest;rounded=0;shadow=0;html=0;" vertex="1" parent="XxWV6MkHS1eh3oYA28Jd-0">
          <mxGeometry y="82" width="160" height="26" as="geometry" />
        </mxCell>
        <mxCell id="XxWV6MkHS1eh3oYA28Jd-5" value="entries" style="swimlane;fontStyle=0;align=center;verticalAlign=top;childLayout=stackLayout;horizontal=1;startSize=26;horizontalStack=0;resizeParent=1;resizeLast=0;collapsible=1;marginBottom=0;rounded=0;shadow=0;strokeWidth=1;" vertex="1" parent="WIyWlLk6GJQsqaUBKTNV-1">
          <mxGeometry x="515" y="670" width="165" height="264" as="geometry">
            <mxRectangle x="550" y="140" width="160" height="26" as="alternateBounds" />
          </mxGeometry>
        </mxCell>
        <mxCell id="XxWV6MkHS1eh3oYA28Jd-6" value="(PK) id: integer" style="text;align=left;verticalAlign=top;spacingLeft=4;spacingRight=4;overflow=hidden;rotatable=0;points=[[0,0.5],[1,0.5]];portConstraint=eastwest;" vertex="1" parent="XxWV6MkHS1eh3oYA28Jd-5">
          <mxGeometry y="26" width="165" height="26" as="geometry" />
        </mxCell>
        <mxCell id="XxWV6MkHS1eh3oYA28Jd-14" value="(FK) user_id: integer" style="text;html=1;align=left;verticalAlign=middle;whiteSpace=wrap;rounded=0;" vertex="1" parent="XxWV6MkHS1eh3oYA28Jd-5">
          <mxGeometry y="52" width="165" height="30" as="geometry" />
        </mxCell>
        <mxCell id="XxWV6MkHS1eh3oYA28Jd-7" value="date: date" style="text;align=left;verticalAlign=top;spacingLeft=4;spacingRight=4;overflow=hidden;rotatable=0;points=[[0,0.5],[1,0.5]];portConstraint=eastwest;rounded=0;shadow=0;html=0;" vertex="1" parent="XxWV6MkHS1eh3oYA28Jd-5">
          <mxGeometry y="82" width="165" height="26" as="geometry" />
        </mxCell>
        <mxCell id="XxWV6MkHS1eh3oYA28Jd-8" value="(FK) status_id: varchar" style="text;align=left;verticalAlign=top;spacingLeft=4;spacingRight=4;overflow=hidden;rotatable=0;points=[[0,0.5],[1,0.5]];portConstraint=eastwest;rounded=0;shadow=0;html=0;" vertex="1" parent="XxWV6MkHS1eh3oYA28Jd-5">
          <mxGeometry y="108" width="165" height="26" as="geometry" />
        </mxCell>
        <mxCell id="XxWV6MkHS1eh3oYA28Jd-9" value="(FK) type_id: integer" style="text;align=left;verticalAlign=top;spacingLeft=4;spacingRight=4;overflow=hidden;rotatable=0;points=[[0,0.5],[1,0.5]];portConstraint=eastwest;rounded=0;shadow=0;html=0;" vertex="1" parent="XxWV6MkHS1eh3oYA28Jd-5">
          <mxGeometry y="134" width="165" height="26" as="geometry" />
        </mxCell>
        <mxCell id="XxWV6MkHS1eh3oYA28Jd-10" value="(FK) category_id: integer" style="text;align=left;verticalAlign=top;spacingLeft=4;spacingRight=4;overflow=hidden;rotatable=0;points=[[0,0.5],[1,0.5]];portConstraint=eastwest;rounded=0;shadow=0;html=0;" vertex="1" parent="XxWV6MkHS1eh3oYA28Jd-5">
          <mxGeometry y="160" width="165" height="26" as="geometry" />
        </mxCell>
        <mxCell id="XxWV6MkHS1eh3oYA28Jd-11" value="(FK) subcategory_id: integer" style="text;align=left;verticalAlign=top;spacingLeft=4;spacingRight=4;overflow=hidden;rotatable=0;points=[[0,0.5],[1,0.5]];portConstraint=eastwest;" vertex="1" parent="XxWV6MkHS1eh3oYA28Jd-5">
          <mxGeometry y="186" width="165" height="26" as="geometry" />
        </mxCell>
        <mxCell id="XxWV6MkHS1eh3oYA28Jd-12" value="amount: integer" style="text;align=left;verticalAlign=top;spacingLeft=4;spacingRight=4;overflow=hidden;rotatable=0;points=[[0,0.5],[1,0.5]];portConstraint=eastwest;" vertex="1" parent="XxWV6MkHS1eh3oYA28Jd-5">
          <mxGeometry y="212" width="165" height="26" as="geometry" />
        </mxCell>
        <mxCell id="XxWV6MkHS1eh3oYA28Jd-13" value="comment: varchar" style="text;align=left;verticalAlign=top;spacingLeft=4;spacingRight=4;overflow=hidden;rotatable=0;points=[[0,0.5],[1,0.5]];portConstraint=eastwest;" vertex="1" parent="XxWV6MkHS1eh3oYA28Jd-5">
          <mxGeometry y="238" width="165" height="26" as="geometry" />
        </mxCell>
        <mxCell id="XxWV6MkHS1eh3oYA28Jd-15" value="" style="endArrow=oval;dashed=1;html=1;rounded=0;elbow=vertical;endFill=1;entryX=0;entryY=0.5;entryDx=0;entryDy=0;exitX=1;exitY=0.5;exitDx=0;exitDy=0;" edge="1" parent="WIyWlLk6GJQsqaUBKTNV-1" source="XxWV6MkHS1eh3oYA28Jd-1" target="XxWV6MkHS1eh3oYA28Jd-14">
          <mxGeometry width="50" height="50" relative="1" as="geometry">
            <mxPoint x="345" y="810" as="sourcePoint" />
            <mxPoint x="575" y="860" as="targetPoint" />
          </mxGeometry>
        </mxCell>
        <mxCell id="XxWV6MkHS1eh3oYA28Jd-16" value="category" style="swimlane;fontStyle=0;align=center;verticalAlign=top;childLayout=stackLayout;horizontal=1;startSize=26;horizontalStack=0;resizeParent=1;resizeLast=0;collapsible=1;marginBottom=0;rounded=0;shadow=0;strokeWidth=1;" vertex="1" parent="WIyWlLk6GJQsqaUBKTNV-1">
          <mxGeometry x="920" y="810" width="160" height="80" as="geometry">
            <mxRectangle x="550" y="140" width="160" height="26" as="alternateBounds" />
          </mxGeometry>
        </mxCell>
        <mxCell id="XxWV6MkHS1eh3oYA28Jd-17" value="(PK) id: integer" style="text;align=left;verticalAlign=top;spacingLeft=4;spacingRight=4;overflow=hidden;rotatable=0;points=[[0,0.5],[1,0.5]];portConstraint=eastwest;" vertex="1" parent="XxWV6MkHS1eh3oYA28Jd-16">
          <mxGeometry y="26" width="160" height="26" as="geometry" />
        </mxCell>
        <mxCell id="XxWV6MkHS1eh3oYA28Jd-18" value="category_name: varchar" style="text;align=left;verticalAlign=top;spacingLeft=4;spacingRight=4;overflow=hidden;rotatable=0;points=[[0,0.5],[1,0.5]];portConstraint=eastwest;rounded=0;shadow=0;html=0;" vertex="1" parent="XxWV6MkHS1eh3oYA28Jd-16">
          <mxGeometry y="52" width="160" height="26" as="geometry" />
        </mxCell>
        <mxCell id="XxWV6MkHS1eh3oYA28Jd-21" value="type" style="swimlane;fontStyle=0;align=center;verticalAlign=top;childLayout=stackLayout;horizontal=1;startSize=26;horizontalStack=0;resizeParent=1;resizeLast=0;collapsible=1;marginBottom=0;rounded=0;shadow=0;strokeWidth=1;" vertex="1" parent="WIyWlLk6GJQsqaUBKTNV-1">
          <mxGeometry x="710" y="684" width="160" height="80" as="geometry">
            <mxRectangle x="550" y="140" width="160" height="26" as="alternateBounds" />
          </mxGeometry>
        </mxCell>
        <mxCell id="XxWV6MkHS1eh3oYA28Jd-22" value="(PK) id: integer" style="text;align=left;verticalAlign=top;spacingLeft=4;spacingRight=4;overflow=hidden;rotatable=0;points=[[0,0.5],[1,0.5]];portConstraint=eastwest;" vertex="1" parent="XxWV6MkHS1eh3oYA28Jd-21">
          <mxGeometry y="26" width="160" height="26" as="geometry" />
        </mxCell>
        <mxCell id="XxWV6MkHS1eh3oYA28Jd-23" value="type_name: varchar" style="text;align=left;verticalAlign=top;spacingLeft=4;spacingRight=4;overflow=hidden;rotatable=0;points=[[0,0.5],[1,0.5]];portConstraint=eastwest;rounded=0;shadow=0;html=0;" vertex="1" parent="XxWV6MkHS1eh3oYA28Jd-21">
          <mxGeometry y="52" width="160" height="26" as="geometry" />
        </mxCell>
        <mxCell id="XxWV6MkHS1eh3oYA28Jd-26" value="subcategory" style="swimlane;fontStyle=0;align=center;verticalAlign=top;childLayout=stackLayout;horizontal=1;startSize=26;horizontalStack=0;resizeParent=1;resizeLast=0;collapsible=1;marginBottom=0;rounded=0;shadow=0;strokeWidth=1;" vertex="1" parent="WIyWlLk6GJQsqaUBKTNV-1">
          <mxGeometry x="1120" y="890" width="160" height="108" as="geometry">
            <mxRectangle x="550" y="140" width="160" height="26" as="alternateBounds" />
          </mxGeometry>
        </mxCell>
        <mxCell id="XxWV6MkHS1eh3oYA28Jd-27" value="(PK) id: integer" style="text;align=left;verticalAlign=top;spacingLeft=4;spacingRight=4;overflow=hidden;rotatable=0;points=[[0,0.5],[1,0.5]];portConstraint=eastwest;" vertex="1" parent="XxWV6MkHS1eh3oYA28Jd-26">
          <mxGeometry y="26" width="160" height="26" as="geometry" />
        </mxCell>
        <mxCell id="XxWV6MkHS1eh3oYA28Jd-29" value="(FK) category_id: integer" style="text;html=1;align=left;verticalAlign=middle;whiteSpace=wrap;rounded=0;" vertex="1" parent="XxWV6MkHS1eh3oYA28Jd-26">
          <mxGeometry y="52" width="160" height="30" as="geometry" />
        </mxCell>
        <mxCell id="XxWV6MkHS1eh3oYA28Jd-28" value="subcategory_name: varchar" style="text;align=left;verticalAlign=top;spacingLeft=4;spacingRight=4;overflow=hidden;rotatable=0;points=[[0,0.5],[1,0.5]];portConstraint=eastwest;rounded=0;shadow=0;html=0;" vertex="1" parent="XxWV6MkHS1eh3oYA28Jd-26">
          <mxGeometry y="82" width="160" height="26" as="geometry" />
        </mxCell>
        <mxCell id="XxWV6MkHS1eh3oYA28Jd-30" value="" style="endArrow=oval;dashed=1;html=1;rounded=0;elbow=vertical;endFill=1;entryX=1;entryY=0.5;entryDx=0;entryDy=0;exitX=0;exitY=0.5;exitDx=0;exitDy=0;" edge="1" parent="WIyWlLk6GJQsqaUBKTNV-1" source="XxWV6MkHS1eh3oYA28Jd-22" target="XxWV6MkHS1eh3oYA28Jd-9">
          <mxGeometry width="50" height="50" relative="1" as="geometry">
            <mxPoint x="765" y="803" as="sourcePoint" />
            <mxPoint x="1265" y="939" as="targetPoint" />
          </mxGeometry>
        </mxCell>
        <mxCell id="XxWV6MkHS1eh3oYA28Jd-33" value="status" style="swimlane;fontStyle=0;align=center;verticalAlign=top;childLayout=stackLayout;horizontal=1;startSize=26;horizontalStack=0;resizeParent=1;resizeLast=0;collapsible=1;marginBottom=0;rounded=0;shadow=0;strokeWidth=1;" vertex="1" parent="WIyWlLk6GJQsqaUBKTNV-1">
          <mxGeometry x="290" y="830" width="160" height="80" as="geometry">
            <mxRectangle x="550" y="140" width="160" height="26" as="alternateBounds" />
          </mxGeometry>
        </mxCell>
        <mxCell id="XxWV6MkHS1eh3oYA28Jd-34" value="(PK) id: integer" style="text;align=left;verticalAlign=top;spacingLeft=4;spacingRight=4;overflow=hidden;rotatable=0;points=[[0,0.5],[1,0.5]];portConstraint=eastwest;" vertex="1" parent="XxWV6MkHS1eh3oYA28Jd-33">
          <mxGeometry y="26" width="160" height="26" as="geometry" />
        </mxCell>
        <mxCell id="XxWV6MkHS1eh3oYA28Jd-35" value="status_name: varchar" style="text;align=left;verticalAlign=top;spacingLeft=4;spacingRight=4;overflow=hidden;rotatable=0;points=[[0,0.5],[1,0.5]];portConstraint=eastwest;rounded=0;shadow=0;html=0;" vertex="1" parent="XxWV6MkHS1eh3oYA28Jd-33">
          <mxGeometry y="52" width="160" height="26" as="geometry" />
        </mxCell>
        <mxCell id="XxWV6MkHS1eh3oYA28Jd-37" value="" style="endArrow=oval;dashed=1;html=1;rounded=0;elbow=vertical;endFill=1;entryX=1;entryY=0.5;entryDx=0;entryDy=0;exitX=0;exitY=0.5;exitDx=0;exitDy=0;" edge="1" parent="WIyWlLk6GJQsqaUBKTNV-1" source="XxWV6MkHS1eh3oYA28Jd-17" target="XxWV6MkHS1eh3oYA28Jd-10">
          <mxGeometry width="50" height="50" relative="1" as="geometry">
            <mxPoint x="760" y="833" as="sourcePoint" />
            <mxPoint x="700" y="837" as="targetPoint" />
          </mxGeometry>
        </mxCell>
        <mxCell id="XxWV6MkHS1eh3oYA28Jd-38" value="" style="endArrow=oval;dashed=1;html=1;rounded=0;elbow=vertical;endFill=1;entryX=1;entryY=0.5;entryDx=0;entryDy=0;exitX=0;exitY=0.5;exitDx=0;exitDy=0;" edge="1" parent="WIyWlLk6GJQsqaUBKTNV-1" source="XxWV6MkHS1eh3oYA28Jd-27" target="XxWV6MkHS1eh3oYA28Jd-11">
          <mxGeometry width="50" height="50" relative="1" as="geometry">
            <mxPoint x="770" y="843" as="sourcePoint" />
            <mxPoint x="710" y="847" as="targetPoint" />
          </mxGeometry>
        </mxCell>
        <mxCell id="XxWV6MkHS1eh3oYA28Jd-41" value="" style="endArrow=oval;dashed=1;html=1;rounded=0;elbow=vertical;endFill=1;entryX=0;entryY=0.5;entryDx=0;entryDy=0;exitX=1;exitY=0.5;exitDx=0;exitDy=0;" edge="1" parent="WIyWlLk6GJQsqaUBKTNV-1" source="XxWV6MkHS1eh3oYA28Jd-34" target="XxWV6MkHS1eh3oYA28Jd-8">
          <mxGeometry width="50" height="50" relative="1" as="geometry">
            <mxPoint x="800" y="873" as="sourcePoint" />
            <mxPoint x="740" y="877" as="targetPoint" />
          </mxGeometry>
        </mxCell>
        <mxCell id="XxWV6MkHS1eh3oYA28Jd-42" value="" style="endArrow=oval;dashed=1;html=1;rounded=0;elbow=vertical;endFill=1;entryX=0;entryY=0.5;entryDx=0;entryDy=0;exitX=1;exitY=0.5;exitDx=0;exitDy=0;" edge="1" parent="WIyWlLk6GJQsqaUBKTNV-1" source="XxWV6MkHS1eh3oYA28Jd-17" target="XxWV6MkHS1eh3oYA28Jd-29">
          <mxGeometry width="50" height="50" relative="1" as="geometry">
            <mxPoint x="710" y="963" as="sourcePoint" />
            <mxPoint x="650" y="967" as="targetPoint" />
          </mxGeometry>
        </mxCell>
        <mxCell id="XxWV6MkHS1eh3oYA28Jd-43" value="category_links_type" style="swimlane;fontStyle=0;align=center;verticalAlign=top;childLayout=stackLayout;horizontal=1;startSize=26;horizontalStack=0;resizeParent=1;resizeLast=0;collapsible=1;marginBottom=0;rounded=0;shadow=0;strokeWidth=1;" vertex="1" parent="WIyWlLk6GJQsqaUBKTNV-1">
          <mxGeometry x="920" y="660" width="160" height="104" as="geometry">
            <mxRectangle x="550" y="140" width="160" height="26" as="alternateBounds" />
          </mxGeometry>
        </mxCell>
        <mxCell id="XxWV6MkHS1eh3oYA28Jd-44" value="(PK) id: integer" style="text;align=left;verticalAlign=top;spacingLeft=4;spacingRight=4;overflow=hidden;rotatable=0;points=[[0,0.5],[1,0.5]];portConstraint=eastwest;" vertex="1" parent="XxWV6MkHS1eh3oYA28Jd-43">
          <mxGeometry y="26" width="160" height="26" as="geometry" />
        </mxCell>
        <mxCell id="XxWV6MkHS1eh3oYA28Jd-47" value="(FK) type_id: integer" style="text;align=left;verticalAlign=top;spacingLeft=4;spacingRight=4;overflow=hidden;rotatable=0;points=[[0,0.5],[1,0.5]];portConstraint=eastwest;rounded=0;shadow=0;html=0;" vertex="1" parent="XxWV6MkHS1eh3oYA28Jd-43">
          <mxGeometry y="52" width="160" height="26" as="geometry" />
        </mxCell>
        <mxCell id="XxWV6MkHS1eh3oYA28Jd-45" value="(FK) category_id: integer" style="text;align=left;verticalAlign=top;spacingLeft=4;spacingRight=4;overflow=hidden;rotatable=0;points=[[0,0.5],[1,0.5]];portConstraint=eastwest;rounded=0;shadow=0;html=0;" vertex="1" parent="XxWV6MkHS1eh3oYA28Jd-43">
          <mxGeometry y="78" width="160" height="26" as="geometry" />
        </mxCell>
        <mxCell id="XxWV6MkHS1eh3oYA28Jd-48" value="" style="endArrow=oval;dashed=1;html=1;rounded=0;elbow=vertical;endFill=1;entryX=0;entryY=0.5;entryDx=0;entryDy=0;exitX=1;exitY=0.5;exitDx=0;exitDy=0;" edge="1" parent="WIyWlLk6GJQsqaUBKTNV-1" source="XxWV6MkHS1eh3oYA28Jd-22" target="XxWV6MkHS1eh3oYA28Jd-47">
          <mxGeometry width="50" height="50" relative="1" as="geometry">
            <mxPoint x="710" y="669" as="sourcePoint" />
            <mxPoint x="690" y="827" as="targetPoint" />
          </mxGeometry>
        </mxCell>
        <mxCell id="XxWV6MkHS1eh3oYA28Jd-49" value="" style="endArrow=oval;dashed=1;html=1;rounded=0;elbow=vertical;endFill=1;exitX=0;exitY=0.5;exitDx=0;exitDy=0;entryX=0;entryY=0.5;entryDx=0;entryDy=0;" edge="1" parent="WIyWlLk6GJQsqaUBKTNV-1" source="XxWV6MkHS1eh3oYA28Jd-17" target="XxWV6MkHS1eh3oYA28Jd-45">
          <mxGeometry width="50" height="50" relative="1" as="geometry">
            <mxPoint x="870" y="669" as="sourcePoint" />
            <mxPoint x="880" y="730" as="targetPoint" />
            <Array as="points">
              <mxPoint x="880" y="800" />
            </Array>
          </mxGeometry>
        </mxCell>
      </root>
    </mxGraphModel>
  </diagram>
</mxfile>
